<svg width="1171" height="290" viewBox="0 0 1171 290" fill="none" xmlns="http://www.w3.org/2000/svg">
<path opacity="0.1" fill-rule="evenodd" clip-rule="evenodd" d="M0.802246 3.30254V0.811157H1.77643V3.30254H0.802246ZM146.93 3.30254V0.811157H147.904V3.30254H146.93ZM293.058 3.30254V0.811157H294.033V3.30254H293.058ZM439.187 3.30254V0.811157H440.161V3.30254H439.187ZM585.315 3.30254V0.811157H586.289V3.30254H585.315ZM731.443 3.30254V0.811157H732.417V3.30254H731.443ZM877.571 3.30254V0.811157H878.546V3.30254H877.571ZM1023.7 3.30254V0.811157H1024.67V3.30254H1023.7ZM1169.83 3.30254V0.811157H1170.8V3.30254H1169.83ZM0.802246 13.2681V8.2853H1.77643V13.2681H0.802246ZM146.93 13.2681V8.2853H147.904V13.2681H146.93ZM293.058 13.2681V8.2853H294.033V13.2681H293.058ZM439.187 13.2681V8.2853H440.161V13.2681H439.187ZM585.315 13.2681V8.2853H586.289V13.2681H585.315ZM731.443 13.2681V8.2853H732.417V13.2681H731.443ZM877.571 13.2681V8.2853H878.546V13.2681H877.571ZM1023.7 13.2681V8.2853H1024.67V13.2681H1023.7ZM1169.83 13.2681V8.2853H1170.8V13.2681H1169.83ZM0.802246 23.2336V18.2509H1.77643V23.2336H0.802246ZM146.93 23.2336V18.2509H147.904V23.2336H146.93ZM293.058 23.2336V18.2509H294.033V23.2336H293.058ZM439.187 23.2336V18.2509H440.161V23.2336H439.187ZM585.315 23.2336V18.2509H586.289V23.2336H585.315ZM731.443 23.2336V18.2509H732.417V23.2336H731.443ZM877.571 23.2336V18.2509H878.546V23.2336H877.571ZM1023.7 23.2336V18.2509H1024.67V23.2336H1023.7ZM1169.83 23.2336V18.2509H1170.8V23.2336H1169.83ZM0.802246 33.1991V28.2164H1.77643V33.1991H0.802246ZM146.93 33.1991V28.2164H147.904V33.1991H146.93ZM293.058 33.1991V28.2164H294.033V33.1991H293.058ZM439.187 33.1991V28.2164H440.161V33.1991H439.187ZM585.315 33.1991V28.2164H586.289V33.1991H585.315ZM731.443 33.1991V28.2164H732.417V33.1991H731.443ZM877.571 33.1991V28.2164H878.546V33.1991H877.571ZM1023.7 33.1991V28.2164H1024.67V33.1991H1023.7ZM1169.83 33.1991V28.2164H1170.8V33.1991H1169.83ZM0.802246 43.1646V38.1819H1.77643V43.1646H0.802246ZM146.93 43.1646V38.1819H147.904V43.1646H146.93ZM293.058 43.1646V38.1819H294.033V43.1646H293.058ZM439.187 43.1646V38.1819H440.161V43.1646H439.187ZM585.315 43.1646V38.1819H586.289V43.1646H585.315ZM731.443 43.1646V38.1819H732.417V43.1646H731.443ZM877.571 43.1646V38.1819H878.546V43.1646H877.571ZM1023.7 43.1646V38.1819H1024.67V43.1646H1023.7ZM1169.83 43.1646V38.1819H1170.8V43.1646H1169.83ZM0.802246 53.1302V48.1474H1.77643V53.1302H0.802246ZM146.93 53.1302V48.1474H147.904V53.1302H146.93ZM293.058 53.1302V48.1474H294.033V53.1302H293.058ZM439.187 53.1302V48.1474H440.161V53.1302H439.187ZM585.315 53.1302V48.1474H586.289V53.1302H585.315ZM731.443 53.1302V48.1474H732.417V53.1302H731.443ZM877.571 53.1302V48.1474H878.546V53.1302H877.571ZM1023.7 53.1302V48.1474H1024.67V53.1302H1023.7ZM1169.83 53.1302V48.1474H1170.8V53.1302H1169.83ZM0.802246 63.0957V58.1129H1.77643V63.0957H0.802246ZM146.93 63.0957V58.1129H147.904V63.0957H146.93ZM293.058 63.0957V58.1129H294.033V63.0957H293.058ZM439.187 63.0957V58.1129H440.161V63.0957H439.187ZM585.315 63.0957V58.1129H586.289V63.0957H585.315ZM731.443 63.0957V58.1129H732.417V63.0957H731.443ZM877.571 63.0957V58.1129H878.546V63.0957H877.571ZM1023.7 63.0957V58.1129H1024.67V63.0957H1023.7ZM1169.83 63.0957V58.1129H1170.8V63.0957H1169.83ZM0.802246 73.0612V68.0784H1.77643V73.0612H0.802246ZM146.93 73.0612V68.0784H147.904V73.0612H146.93ZM293.058 73.0612V68.0784H294.033V73.0612H293.058ZM439.187 73.0612V68.0784H440.161V73.0612H439.187ZM585.315 73.0612V68.0784H586.289V73.0612H585.315ZM731.443 73.0612V68.0784H732.417V73.0612H731.443ZM877.571 73.0612V68.0784H878.546V73.0612H877.571ZM1023.7 73.0612V68.0784H1024.67V73.0612H1023.7ZM1169.83 73.0612V68.0784H1170.8V73.0612H1169.83ZM0.802246 83.0267V78.044H1.77643V83.0267H0.802246ZM146.93 83.0267V78.044H147.904V83.0267H146.93ZM293.058 83.0267V78.044H294.033V83.0267H293.058ZM439.187 83.0267V78.044H440.161V83.0267H439.187ZM585.315 83.0267V78.044H586.289V83.0267H585.315ZM731.443 83.0267V78.044H732.417V83.0267H731.443ZM877.571 83.0267V78.044H878.546V83.0267H877.571ZM1023.7 83.0267V78.044H1024.67V83.0267H1023.7ZM1169.83 83.0267V78.044H1170.8V83.0267H1169.83ZM0.802246 92.9922V88.0095H1.77643V92.9922H0.802246ZM146.93 92.9922V88.0095H147.904V92.9922H146.93ZM293.058 92.9922V88.0095H294.033V92.9922H293.058ZM439.187 92.9922V88.0095H440.161V92.9922H439.187ZM585.315 92.9922V88.0095H586.289V92.9922H585.315ZM731.443 92.9922V88.0095H732.417V92.9922H731.443ZM877.571 92.9922V88.0095H878.546V92.9922H877.571ZM1023.7 92.9922V88.0095H1024.67V92.9922H1023.7ZM1169.83 92.9922V88.0095H1170.8V92.9922H1169.83ZM0.802246 102.958V97.975H1.77643V102.958H0.802246ZM146.93 102.958V97.975H147.904V102.958H146.93ZM293.058 102.958V97.975H294.033V102.958H293.058ZM439.187 102.958V97.975H440.161V102.958H439.187ZM585.315 102.958V97.975H586.289V102.958H585.315ZM731.443 102.958V97.975H732.417V102.958H731.443ZM877.571 102.958V97.975H878.546V102.958H877.571ZM1023.7 102.958V97.975H1024.67V102.958H1023.7ZM1169.83 102.958V97.975H1170.8V102.958H1169.83ZM0.802246 112.923V107.94H1.77643V112.923H0.802246ZM146.93 112.923V107.94H147.904V112.923H146.93ZM293.058 112.923V107.94H294.033V112.923H293.058ZM439.187 112.923V107.94H440.161V112.923H439.187ZM585.315 112.923V107.94H586.289V112.923H585.315ZM731.443 112.923V107.94H732.417V112.923H731.443ZM877.571 112.923V107.94H878.546V112.923H877.571ZM1023.7 112.923V107.94H1024.67V112.923H1023.7ZM1169.83 112.923V107.94H1170.8V112.923H1169.83ZM0.802246 122.889V117.906H1.77643V122.889H0.802246ZM146.93 122.889V117.906H147.904V122.889H146.93ZM293.058 122.889V117.906H294.033V122.889H293.058ZM439.187 122.889V117.906H440.161V122.889H439.187ZM585.315 122.889V117.906H586.289V122.889H585.315ZM731.443 122.889V117.906H732.417V122.889H731.443ZM877.571 122.889V117.906H878.546V122.889H877.571ZM1023.7 122.889V117.906H1024.67V122.889H1023.7ZM1169.83 122.889V117.906H1170.8V122.889H1169.83ZM0.802246 132.854V127.871H1.77643V132.854H0.802246ZM146.93 132.854V127.871H147.904V132.854H146.93ZM293.058 132.854V127.871H294.033V132.854H293.058ZM439.187 132.854V127.871H440.161V132.854H439.187ZM585.315 132.854V127.871H586.289V132.854H585.315ZM731.443 132.854V127.871H732.417V132.854H731.443ZM877.571 132.854V127.871H878.546V132.854H877.571ZM1023.7 132.854V127.871H1024.67V132.854H1023.7ZM1169.83 132.854V127.871H1170.8V132.854H1169.83ZM0.802246 142.82V137.837H1.77643V142.82H0.802246ZM146.93 142.82V137.837H147.904V142.82H146.93ZM293.058 142.82V137.837H294.033V142.82H293.058ZM439.187 142.82V137.837H440.161V142.82H439.187ZM585.315 142.82V137.837H586.289V142.82H585.315ZM731.443 142.82V137.837H732.417V142.82H731.443ZM877.571 142.82V137.837H878.546V142.82H877.571ZM1023.7 142.82V137.837H1024.67V142.82H1023.7ZM1169.83 142.82V137.837H1170.8V142.82H1169.83ZM0.802246 152.785V147.802H1.77643V152.785H0.802246ZM146.93 152.785V147.802H147.904V152.785H146.93ZM293.058 152.785V147.802H294.033V152.785H293.058ZM439.187 152.785V147.802H440.161V152.785H439.187ZM585.315 152.785V147.802H586.289V152.785H585.315ZM731.443 152.785V147.802H732.417V152.785H731.443ZM877.571 152.785V147.802H878.546V152.785H877.571ZM1023.7 152.785V147.802H1024.67V152.785H1023.7ZM1169.83 152.785V147.802H1170.8V152.785H1169.83ZM0.802246 162.751V157.768H1.77643V162.751H0.802246ZM146.93 162.751V157.768H147.904V162.751H146.93ZM293.058 162.751V157.768H294.033V162.751H293.058ZM439.187 162.751V157.768H440.161V162.751H439.187ZM585.315 162.751V157.768H586.289V162.751H585.315ZM731.443 162.751V157.768H732.417V162.751H731.443ZM877.571 162.751V157.768H878.546V162.751H877.571ZM1023.7 162.751V157.768H1024.67V162.751H1023.7ZM1169.83 162.751V157.768H1170.8V162.751H1169.83ZM0.802246 172.716V167.733H1.77643V172.716H0.802246ZM146.93 172.716V167.733H147.904V172.716H146.93ZM293.058 172.716V167.733H294.033V172.716H293.058ZM439.187 172.716V167.733H440.161V172.716H439.187ZM585.315 172.716V167.733H586.289V172.716H585.315ZM731.443 172.716V167.733H732.417V172.716H731.443ZM877.571 172.716V167.733H878.546V172.716H877.571ZM1023.7 172.716V167.733H1024.67V172.716H1023.7ZM1169.83 172.716V167.733H1170.8V172.716H1169.83ZM0.802246 182.682V177.699H1.77643V182.682H0.802246ZM146.93 182.682V177.699H147.904V182.682H146.93ZM293.058 182.682V177.699H294.033V182.682H293.058ZM439.187 182.682V177.699H440.161V182.682H439.187ZM585.315 182.682V177.699H586.289V182.682H585.315ZM731.443 182.682V177.699H732.417V182.682H731.443ZM877.571 182.682V177.699H878.546V182.682H877.571ZM1023.7 182.682V177.699H1024.67V182.682H1023.7ZM1169.83 182.682V177.699H1170.8V182.682H1169.83ZM0.802246 192.647V187.664H1.77643V192.647H0.802246ZM146.93 192.647V187.664H147.904V192.647H146.93ZM293.058 192.647V187.664H294.033V192.647H293.058ZM439.187 192.647V187.664H440.161V192.647H439.187ZM585.315 192.647V187.664H586.289V192.647H585.315ZM731.443 192.647V187.664H732.417V192.647H731.443ZM877.571 192.647V187.664H878.546V192.647H877.571ZM1023.7 192.647V187.664H1024.67V192.647H1023.7ZM1169.83 192.647V187.664H1170.8V192.647H1169.83ZM0.802246 202.613V197.63H1.77643V202.613H0.802246ZM146.93 202.613V197.63H147.904V202.613H146.93ZM293.058 202.613V197.63H294.033V202.613H293.058ZM439.187 202.613V197.63H440.161V202.613H439.187ZM585.315 202.613V197.63H586.289V202.613H585.315ZM731.443 202.613V197.63H732.417V202.613H731.443ZM877.571 202.613V197.63H878.546V202.613H877.571ZM1023.7 202.613V197.63H1024.67V202.613H1023.7ZM1169.83 202.613V197.63H1170.8V202.613H1169.83ZM0.802246 212.578V207.595H1.77643V212.578H0.802246ZM146.93 212.578V207.595H147.904V212.578H146.93ZM293.058 212.578V207.595H294.033V212.578H293.058ZM439.187 212.578V207.595H440.161V212.578H439.187ZM585.315 212.578V207.595H586.289V212.578H585.315ZM731.443 212.578V207.595H732.417V212.578H731.443ZM877.571 212.578V207.595H878.546V212.578H877.571ZM1023.7 212.578V207.595H1024.67V212.578H1023.7ZM1169.83 212.578V207.595H1170.8V212.578H1169.83ZM0.802246 222.544V217.561H1.77643V222.544H0.802246ZM146.93 222.544V217.561H147.904V222.544H146.93ZM293.058 222.544V217.561H294.033V222.544H293.058ZM439.187 222.544V217.561H440.161V222.544H439.187ZM585.315 222.544V217.561H586.289V222.544H585.315ZM731.443 222.544V217.561H732.417V222.544H731.443ZM877.571 222.544V217.561H878.546V222.544H877.571ZM1023.7 222.544V217.561H1024.67V222.544H1023.7ZM1169.83 222.544V217.561H1170.8V222.544H1169.83ZM0.802246 232.509V227.526H1.77643V232.509H0.802246ZM146.93 232.509V227.526H147.904V232.509H146.93ZM293.058 232.509V227.526H294.033V232.509H293.058ZM439.187 232.509V227.526H440.161V232.509H439.187ZM585.315 232.509V227.526H586.289V232.509H585.315ZM731.443 232.509V227.526H732.417V232.509H731.443ZM877.571 232.509V227.526H878.546V232.509H877.571ZM1023.7 232.509V227.526H1024.67V232.509H1023.7ZM1169.83 232.509V227.526H1170.8V232.509H1169.83ZM0.802246 242.475V237.492H1.77643V242.475H0.802246ZM146.93 242.475V237.492H147.904V242.475H146.93ZM293.058 242.475V237.492H294.033V242.475H293.058ZM439.187 242.475V237.492H440.161V242.475H439.187ZM585.315 242.475V237.492H586.289V242.475H585.315ZM731.443 242.475V237.492H732.417V242.475H731.443ZM877.571 242.475V237.492H878.546V242.475H877.571ZM1023.7 242.475V237.492H1024.67V242.475H1023.7ZM1169.83 242.475V237.492H1170.8V242.475H1169.83ZM0.802246 252.44V247.458H1.77643V252.44H0.802246ZM146.93 252.44V247.458H147.904V252.44H146.93ZM293.058 252.44V247.458H294.033V252.44H293.058ZM439.187 252.44V247.458H440.161V252.44H439.187ZM585.315 252.44V247.458H586.289V252.44H585.315ZM731.443 252.44V247.458H732.417V252.44H731.443ZM877.571 252.44V247.458H878.546V252.44H877.571ZM1023.7 252.44V247.458H1024.67V252.44H1023.7ZM1169.83 252.44V247.458H1170.8V252.44H1169.83ZM0.802246 262.406V257.423H1.77643V262.406H0.802246ZM146.93 262.406V257.423H147.904V262.406H146.93ZM293.058 262.406V257.423H294.033V262.406H293.058ZM439.187 262.406V257.423H440.161V262.406H439.187ZM585.315 262.406V257.423H586.289V262.406H585.315ZM731.443 262.406V257.423H732.417V262.406H731.443ZM877.571 262.406V257.423H878.546V262.406H877.571ZM1023.7 262.406V257.423H1024.67V262.406H1023.7ZM1169.83 262.406V257.423H1170.8V262.406H1169.83ZM0.802246 272.371V267.389H1.77643V272.371H0.802246ZM146.93 272.371V267.389H147.904V272.371H146.93ZM293.058 272.371V267.389H294.033V272.371H293.058ZM439.187 272.371V267.389H440.161V272.371H439.187ZM585.315 272.371V267.389H586.289V272.371H585.315ZM731.443 272.371V267.389H732.417V272.371H731.443ZM877.571 272.371V267.389H878.546V272.371H877.571ZM1023.7 272.371V267.389H1024.67V272.371H1023.7ZM1169.83 272.371V267.389H1170.8V272.371H1169.83ZM0.802246 282.337V277.354H1.77643V282.337H0.802246ZM146.93 282.337V277.354H147.904V282.337H146.93ZM293.058 282.337V277.354H294.033V282.337H293.058ZM439.187 282.337V277.354H440.161V282.337H439.187ZM585.315 282.337V277.354H586.289V282.337H585.315ZM731.443 282.337V277.354H732.417V282.337H731.443ZM877.571 282.337V277.354H878.546V282.337H877.571ZM1023.7 282.337V277.354H1024.67V282.337H1023.7ZM1169.83 282.337V277.354H1170.8V282.337H1169.83ZM0.802246 289.811V287.32H1.77643V289.811H0.802246ZM146.93 289.811V287.32H147.904V289.811H146.93ZM293.058 289.811V287.32H294.033V289.811H293.058ZM439.187 289.811V287.32H440.161V289.811H439.187ZM585.315 289.811V287.32H586.289V289.811H585.315ZM731.443 289.811V287.32H732.417V289.811H731.443ZM877.571 289.811V287.32H878.546V289.811H877.571ZM1023.7 289.811V287.32H1024.67V289.811H1023.7ZM1169.83 289.811V287.32H1170.8V289.811H1169.83Z" fill="black"/>
</svg>
