<svg width="180" height="183" viewBox="0 0 180 183" fill="none" xmlns="http://www.w3.org/2000/svg">
<path d="M126.589 151.632H93.589V58.5409H126.862C136.225 58.5409 144.286 60.4046 151.044 64.1318C157.801 67.8288 162.998 73.147 166.634 80.0864C170.301 87.0258 172.134 95.3288 172.134 104.995C172.134 114.692 170.301 123.026 166.634 129.995C162.998 136.965 157.771 142.314 150.953 146.041C144.165 149.768 136.044 151.632 126.589 151.632ZM113.271 134.768H125.771C131.589 134.768 136.483 133.738 140.453 131.677C144.453 129.586 147.453 126.359 149.453 121.995C151.483 117.602 152.498 111.935 152.498 104.995C152.498 98.1167 151.483 92.4955 149.453 88.1318C147.453 83.7682 144.468 80.5561 140.498 78.4955C136.528 76.4349 131.634 75.4046 125.816 75.4046H113.271V134.768Z" fill="url(#paint0_linear_19_1716)"/>
<path d="M41.1856 124.589H8.18564V31.4984H41.4584C50.822 31.4984 58.8826 33.3621 65.6402 37.0894C72.3978 40.7863 77.5947 46.1045 81.2311 53.0439C84.8978 59.9833 86.7311 68.2863 86.7311 77.953C86.7311 87.65 84.8978 95.9833 81.2311 102.953C77.5947 109.923 72.3675 115.271 65.5493 118.998C58.7614 122.726 50.6402 124.589 41.1856 124.589ZM27.8675 107.726H40.3675C46.1856 107.726 51.0796 106.695 55.0493 104.635C59.0493 102.544 62.0493 99.3166 64.0493 94.953C66.0796 90.5591 67.0947 84.8924 67.0947 77.953C67.0947 71.0742 66.0796 65.453 64.0493 61.0894C62.0493 56.7257 59.0644 53.5136 55.0947 51.453C51.125 49.3924 46.2311 48.3621 40.4129 48.3621H27.8675V107.726Z" fill="url(#paint1_linear_19_1716)"/>
<path d="M41.1856 124.589H8.18564V31.4984H41.4584C50.822 31.4984 58.8826 33.3621 65.6402 37.0894C72.3978 40.7863 77.5947 46.1045 81.2311 53.0439C84.8978 59.9833 86.7311 68.2863 86.7311 77.953C86.7311 87.65 84.8978 95.9833 81.2311 102.953C77.5947 109.923 72.3675 115.271 65.5493 118.998C58.7614 122.726 50.6402 124.589 41.1856 124.589ZM27.8675 107.726H40.3675C46.1856 107.726 51.0796 106.695 55.0493 104.635C59.0493 102.544 62.0493 99.3166 64.0493 94.953C66.0796 90.5591 67.0947 84.8924 67.0947 77.953C67.0947 71.0742 66.0796 65.453 64.0493 61.0894C62.0493 56.7257 59.0644 53.5136 55.0947 51.453C51.125 49.3924 46.2311 48.3621 40.4129 48.3621H27.8675V107.726Z" fill="url(#paint2_linear_19_1716)" fill-opacity="0.2"/>
<defs>
<linearGradient id="paint0_linear_19_1716" x1="130.879" y1="74.5474" x2="62.9967" y2="163.089" gradientUnits="userSpaceOnUse">
<stop stop-opacity="0.22"/>
<stop offset="0.16669" stop-color="#7D7D7D"/>
<stop offset="0.317005" stop-color="#2E2E2E" stop-opacity="0.367124"/>
<stop offset="0.516025" stop-opacity="0"/>
<stop offset="1" stop-opacity="0.01"/>
</linearGradient>
<linearGradient id="paint1_linear_19_1716" x1="6.73468" y1="155.36" x2="66.6774" y2="21.9387" gradientUnits="userSpaceOnUse">
<stop offset="0.2625" stop-color="#646464" stop-opacity="0.22"/>
<stop offset="0.456646" stop-color="white" stop-opacity="0.22"/>
<stop offset="0.633956" stop-color="white" stop-opacity="0"/>
<stop offset="0.929553" stop-color="white" stop-opacity="0.01"/>
</linearGradient>
<linearGradient id="paint2_linear_19_1716" x1="-40.9833" y1="-14.204" x2="-114.584" y2="106.855" gradientUnits="userSpaceOnUse">
<stop stop-color="white" stop-opacity="0.26"/>
<stop offset="0.398327"/>
<stop offset="1" stop-color="white" stop-opacity="0"/>
</linearGradient>
</defs>
</svg>
