<svg width="180" height="183" viewBox="0 0 180 183" fill="none" xmlns="http://www.w3.org/2000/svg">
<path d="M126.541 151.228H93.5411V58.1369H126.814C136.177 58.1369 144.238 60.0005 150.996 63.7278C157.753 67.4247 162.95 72.7429 166.587 79.6823C170.253 86.6217 172.087 94.9248 172.087 104.591C172.087 114.288 170.253 122.622 166.587 129.591C162.95 136.561 157.723 141.91 150.905 145.637C144.117 149.364 135.996 151.228 126.541 151.228ZM113.223 134.364H125.723C131.541 134.364 136.435 133.334 140.405 131.273C144.405 129.182 147.405 125.955 149.405 121.591C151.435 117.197 152.45 111.531 152.45 104.591C152.45 97.7126 151.435 92.0914 149.405 87.7278C147.405 83.3641 144.42 80.152 140.45 78.0914C136.48 76.0308 131.587 75.0005 125.768 75.0005H113.223V134.364Z" fill="url(#paint0_linear_21_1771)"/>
<path d="M41.0909 124H8.09091V30.9091H41.3636C50.7273 30.9091 58.7879 32.7727 65.5455 36.5C72.303 40.197 77.5 45.5151 81.1364 52.4545C84.803 59.3939 86.6364 67.697 86.6364 77.3636C86.6364 87.0606 84.803 95.3939 81.1364 102.364C77.5 109.333 72.2727 114.682 65.4545 118.409C58.6667 122.136 50.5455 124 41.0909 124ZM27.7727 107.136H40.2727C46.0909 107.136 50.9848 106.106 54.9545 104.045C58.9545 101.955 61.9545 98.7273 63.9545 94.3636C65.9848 89.9697 67 84.303 67 77.3636C67 70.4848 65.9848 64.8636 63.9545 60.5C61.9545 56.1364 58.9697 52.9242 55 50.8636C51.0303 48.803 46.1364 47.7727 40.3182 47.7727H27.7727V107.136Z" fill="url(#paint1_linear_21_1771)"/>
<path d="M41.0909 124H8.09091V30.9091H41.3636C50.7273 30.9091 58.7879 32.7727 65.5455 36.5C72.303 40.197 77.5 45.5151 81.1364 52.4545C84.803 59.3939 86.6364 67.697 86.6364 77.3636C86.6364 87.0606 84.803 95.3939 81.1364 102.364C77.5 109.333 72.2727 114.682 65.4545 118.409C58.6667 122.136 50.5455 124 41.0909 124ZM27.7727 107.136H40.2727C46.0909 107.136 50.9848 106.106 54.9545 104.045C58.9545 101.955 61.9545 98.7273 63.9545 94.3636C65.9848 89.9697 67 84.303 67 77.3636C67 70.4848 65.9848 64.8636 63.9545 60.5C61.9545 56.1364 58.9697 52.9242 55 50.8636C51.0303 48.803 46.1364 47.7727 40.3182 47.7727H27.7727V107.136Z" fill="url(#paint2_linear_21_1771)" fill-opacity="0.2"/>
<path d="M7.6551 176.228V157.868H14.2161C16.8081 157.868 18.7521 158.723 20.0481 160.433C21.3441 162.143 21.9921 164.348 21.9921 167.048C21.9921 169.748 21.3441 171.953 20.0481 173.663C18.7521 175.373 16.8081 176.228 14.2161 176.228H7.6551ZM14.2161 159.812H9.8151V174.284H14.2161C16.0881 174.284 17.4921 173.618 18.4281 172.286C19.3641 170.936 19.8321 169.19 19.8321 167.048C19.8321 164.906 19.3641 163.169 18.4281 161.837C17.4921 160.487 16.0881 159.812 14.2161 159.812ZM29.616 176.606C27.996 176.606 26.655 176.039 25.593 174.905C24.549 173.771 24.027 172.106 24.027 169.91C24.027 167.714 24.648 165.905 25.89 164.483C27.132 163.061 28.743 162.35 30.723 162.35C31.983 162.35 33 162.737 33.774 163.511C34.548 164.267 34.935 165.221 34.935 166.373C34.935 167.507 34.341 168.551 33.153 169.505C31.983 170.459 30.273 170.936 28.023 170.936C27.429 170.936 26.799 170.909 26.133 170.855C26.259 172.133 26.646 173.105 27.294 173.771C27.96 174.437 28.761 174.77 29.697 174.77C31.263 174.77 32.568 174.284 33.612 173.312L34.584 174.635C33.216 175.949 31.56 176.606 29.616 176.606ZM30.642 164.186C29.4 164.186 28.365 164.627 27.537 165.509C26.727 166.391 26.25 167.561 26.106 169.019C26.7 169.109 27.357 169.154 28.077 169.154C29.625 169.154 30.813 168.866 31.641 168.29C32.469 167.714 32.883 167.048 32.883 166.292C32.883 165.734 32.676 165.248 32.262 164.834C31.866 164.402 31.326 164.186 30.642 164.186ZM37.9151 157.328H39.9671V173.258C39.9671 174.248 40.3721 174.743 41.1821 174.743C41.7041 174.743 42.2171 174.563 42.7211 174.203L43.5311 175.661C42.5411 176.291 41.6051 176.606 40.7231 176.606C39.8411 176.606 39.1481 176.363 38.6441 175.877C38.1581 175.391 37.9151 174.518 37.9151 173.258V157.328ZM49.4899 176.606C47.9419 176.606 46.6729 176.021 45.6829 174.851C44.6929 173.681 44.1979 171.998 44.1979 169.802C44.1979 167.588 44.8189 165.797 46.0609 164.429C47.3209 163.043 48.8779 162.35 50.7319 162.35C52.6039 162.35 54.2869 162.872 55.7809 163.916V173.528L56.0509 176.228L54.2689 176.363L53.8099 173.933C52.8019 175.715 51.3619 176.606 49.4899 176.606ZM46.2499 169.748C46.2499 171.368 46.5919 172.61 47.2759 173.474C47.9599 174.338 48.8329 174.77 49.8949 174.77C50.9749 174.77 51.8839 174.239 52.6219 173.177C53.3599 172.097 53.7289 170.576 53.7289 168.614V164.861C52.8289 164.411 51.8659 164.186 50.8399 164.186C49.5079 164.186 48.4099 164.708 47.5459 165.752C46.6819 166.778 46.2499 168.11 46.2499 169.748ZM60.2481 157.328H62.3001V173.258C62.3001 174.248 62.7051 174.743 63.5151 174.743C64.0371 174.743 64.5501 174.563 65.0541 174.203L65.8641 175.661C64.8741 176.291 63.9381 176.606 63.0561 176.606C62.1741 176.606 61.4811 176.363 60.9771 175.877C60.4911 175.391 60.2481 174.518 60.2481 173.258V157.328ZM67.7999 159.785C67.5839 159.533 67.4759 159.218 67.4759 158.84C67.4759 158.462 67.5839 158.156 67.7999 157.922C68.0159 157.67 68.3309 157.544 68.7449 157.544C69.1589 157.544 69.4829 157.67 69.7169 157.922C69.9509 158.174 70.0679 158.48 70.0679 158.84C70.0679 159.2 69.9509 159.506 69.7169 159.758C69.4829 160.01 69.1589 160.136 68.7449 160.136C68.3309 160.136 68.0159 160.019 67.7999 159.785ZM67.7459 176.228V162.728H69.7979V176.228H67.7459ZM81.4041 176.228V157.868H87.9651C90.5571 157.868 92.5011 158.723 93.7971 160.433C95.0931 162.143 95.7411 164.348 95.7411 167.048C95.7411 169.748 95.0931 171.953 93.7971 173.663C92.5011 175.373 90.5571 176.228 87.9651 176.228H81.4041ZM87.9651 159.812H83.5641V174.284H87.9651C89.8371 174.284 91.2411 173.618 92.1771 172.286C93.1131 170.936 93.5811 169.19 93.5811 167.048C93.5811 164.906 93.1131 163.169 92.1771 161.837C91.2411 160.487 89.8371 159.812 87.9651 159.812ZM99.396 174.635C98.406 173.303 97.911 171.584 97.911 169.478C97.911 167.372 98.406 165.662 99.396 164.348C100.386 163.016 101.862 162.35 103.824 162.35C105.804 162.35 107.298 163.016 108.306 164.348C109.314 165.662 109.818 167.372 109.818 169.478C109.818 171.584 109.314 173.303 108.306 174.635C107.298 175.949 105.804 176.606 103.824 176.606C101.862 176.606 100.386 175.949 99.396 174.635ZM100.935 165.671C100.287 166.643 99.963 167.912 99.963 169.478C99.963 171.044 100.287 172.322 100.935 173.312C101.583 174.284 102.555 174.77 103.851 174.77C105.147 174.77 106.119 174.284 106.767 173.312C107.433 172.322 107.766 171.044 107.766 169.478C107.766 167.912 107.433 166.643 106.767 165.671C106.119 164.681 105.147 164.186 103.851 164.186C102.555 164.186 101.583 164.681 100.935 165.671ZM123.966 175.31C123.966 177.47 123.336 179.234 122.076 180.602C120.834 181.988 119.277 182.681 117.405 182.681C115.551 182.681 113.877 182.159 112.383 181.115L113.409 179.522C113.841 179.882 114.417 180.179 115.137 180.413C115.857 180.647 116.586 180.764 117.324 180.764C118.656 180.764 119.754 180.251 120.618 179.225C121.482 178.199 121.914 176.885 121.914 175.283V174.014C120.906 175.742 119.493 176.606 117.675 176.606C116.127 176.606 114.858 176.021 113.868 174.851C112.878 173.681 112.383 171.998 112.383 169.802C112.383 167.588 113.004 165.797 114.246 164.429C115.506 163.043 117.063 162.35 118.917 162.35C120.789 162.35 122.472 162.872 123.966 163.916V175.31ZM114.435 169.748C114.435 171.368 114.777 172.61 115.461 173.474C116.145 174.338 117.018 174.77 118.08 174.77C119.16 174.77 120.069 174.23 120.807 173.15C121.545 172.07 121.914 170.531 121.914 168.533V164.861C121.014 164.411 120.051 164.186 119.025 164.186C117.693 164.186 116.595 164.708 115.731 165.752C114.867 166.778 114.435 168.11 114.435 169.748ZM130.327 157.328V164.942C131.317 163.214 132.775 162.35 134.701 162.35C136.213 162.35 137.446 162.935 138.4 164.105C139.372 165.275 139.858 166.967 139.858 169.181C139.858 171.377 139.228 173.168 137.968 174.554C136.726 175.922 135.205 176.606 133.405 176.606C131.605 176.606 130.3 176.102 129.49 175.094C128.68 174.068 128.275 172.682 128.275 170.936V157.328H130.327ZM137.806 169.208C137.806 167.57 137.5 166.328 136.888 165.482C136.276 164.618 135.412 164.186 134.296 164.186C133.198 164.186 132.271 164.681 131.515 165.671C130.759 166.661 130.363 168.182 130.327 170.234V170.936C130.327 172.07 130.561 172.997 131.029 173.717C131.515 174.419 132.244 174.77 133.216 174.77C134.548 174.77 135.646 174.257 136.51 173.231C137.374 172.187 137.806 170.846 137.806 169.208ZM148.005 176.606C146.385 176.606 145.044 176.039 143.982 174.905C142.938 173.771 142.416 172.106 142.416 169.91C142.416 167.714 143.037 165.905 144.279 164.483C145.521 163.061 147.132 162.35 149.112 162.35C150.372 162.35 151.389 162.737 152.163 163.511C152.937 164.267 153.324 165.221 153.324 166.373C153.324 167.507 152.73 168.551 151.542 169.505C150.372 170.459 148.662 170.936 146.412 170.936C145.818 170.936 145.188 170.909 144.522 170.855C144.648 172.133 145.035 173.105 145.683 173.771C146.349 174.437 147.15 174.77 148.086 174.77C149.652 174.77 150.957 174.284 152.001 173.312L152.973 174.635C151.605 175.949 149.949 176.606 148.005 176.606ZM149.031 164.186C147.789 164.186 146.754 164.627 145.926 165.509C145.116 166.391 144.639 167.561 144.495 169.019C145.089 169.109 145.746 169.154 146.466 169.154C148.014 169.154 149.202 168.866 150.03 168.29C150.858 167.714 151.272 167.048 151.272 166.292C151.272 165.734 151.065 165.248 150.651 164.834C150.255 164.402 149.715 164.186 149.031 164.186ZM156.628 162.728L160.678 173.879L164.701 162.728H166.888L161.866 176.228H159.436L154.414 162.728H156.628ZM169.498 159.785C169.282 159.533 169.174 159.218 169.174 158.84C169.174 158.462 169.282 158.156 169.498 157.922C169.714 157.67 170.029 157.544 170.443 157.544C170.857 157.544 171.181 157.67 171.415 157.922C171.649 158.174 171.766 158.48 171.766 158.84C171.766 159.2 171.649 159.506 171.415 159.758C171.181 160.01 170.857 160.136 170.443 160.136C170.029 160.136 169.714 160.019 169.498 159.785ZM169.444 176.228V162.728H171.496V176.228H169.444Z" fill="black"/>
<defs>
<linearGradient id="paint0_linear_21_1771" x1="130.831" y1="74.1433" x2="62.9488" y2="162.685" gradientUnits="userSpaceOnUse">
<stop stop-opacity="0.22"/>
<stop offset="0.16669" stop-color="#7D7D7D"/>
<stop offset="0.317005" stop-color="#2E2E2E" stop-opacity="0.367124"/>
<stop offset="0.516025" stop-opacity="0"/>
<stop offset="1" stop-opacity="0.01"/>
</linearGradient>
<linearGradient id="paint1_linear_21_1771" x1="6.63995" y1="154.77" x2="66.5826" y2="21.3494" gradientUnits="userSpaceOnUse">
<stop offset="0.2625" stop-color="#646464" stop-opacity="0.22"/>
<stop offset="0.456646" stop-color="white" stop-opacity="0.22"/>
<stop offset="0.633956" stop-color="white" stop-opacity="0"/>
<stop offset="0.929553" stop-color="white" stop-opacity="0.01"/>
</linearGradient>
<linearGradient id="paint2_linear_21_1771" x1="-41.078" y1="-14.7934" x2="-114.679" y2="106.266" gradientUnits="userSpaceOnUse">
<stop stop-color="white" stop-opacity="0.26"/>
<stop offset="0.398327"/>
<stop offset="1" stop-color="white" stop-opacity="0"/>
</linearGradient>
</defs>
</svg>
