<svg width="180" height="183" viewBox="0 0 180 183" fill="none" xmlns="http://www.w3.org/2000/svg">
<path d="M126.494 151.042H93.4942V57.9516H126.767C136.131 57.9516 144.191 59.8152 150.949 63.5425C157.706 67.2394 162.903 72.5576 166.54 79.497C170.206 86.4364 172.04 94.7394 172.04 104.406C172.04 114.103 170.206 122.436 166.54 129.406C162.903 136.376 157.676 141.724 150.858 145.452C144.07 149.179 135.949 151.042 126.494 151.042ZM113.176 134.179H125.676C131.494 134.179 136.388 133.149 140.358 131.088C144.358 128.997 147.358 125.77 149.358 121.406C151.388 117.012 152.403 111.346 152.403 104.406C152.403 97.5273 151.388 91.9061 149.358 87.5425C147.358 83.1788 144.373 79.9667 140.403 77.9061C136.434 75.8455 131.54 74.8152 125.722 74.8152H113.176V134.179Z" fill="url(#paint0_linear_21_1761)"/>
<path d="M41.0909 124H8.09091V30.9091H41.3636C50.7273 30.9091 58.7879 32.7727 65.5455 36.5C72.303 40.197 77.5 45.5151 81.1364 52.4545C84.803 59.3939 86.6364 67.697 86.6364 77.3636C86.6364 87.0606 84.803 95.3939 81.1364 102.364C77.5 109.333 72.2727 114.682 65.4545 118.409C58.6667 122.136 50.5455 124 41.0909 124ZM27.7727 107.136H40.2727C46.0909 107.136 50.9848 106.106 54.9545 104.045C58.9545 101.955 61.9545 98.7273 63.9545 94.3636C65.9848 89.9697 67 84.303 67 77.3636C67 70.4848 65.9848 64.8636 63.9545 60.5C61.9545 56.1364 58.9697 52.9242 55 50.8636C51.0303 48.803 46.1364 47.7727 40.3182 47.7727H27.7727V107.136Z" fill="url(#paint1_linear_21_1761)"/>
<path d="M41.0909 124H8.09091V30.9091H41.3636C50.7273 30.9091 58.7879 32.7727 65.5455 36.5C72.303 40.197 77.5 45.5151 81.1364 52.4545C84.803 59.3939 86.6364 67.697 86.6364 77.3636C86.6364 87.0606 84.803 95.3939 81.1364 102.364C77.5 109.333 72.2727 114.682 65.4545 118.409C58.6667 122.136 50.5455 124 41.0909 124ZM27.7727 107.136H40.2727C46.0909 107.136 50.9848 106.106 54.9545 104.045C58.9545 101.955 61.9545 98.7273 63.9545 94.3636C65.9848 89.9697 67 84.303 67 77.3636C67 70.4848 65.9848 64.8636 63.9545 60.5C61.9545 56.1364 58.9697 52.9242 55 50.8636C51.0303 48.803 46.1364 47.7727 40.3182 47.7727H27.7727V107.136Z" fill="url(#paint2_linear_21_1761)" fill-opacity="0.2"/>
<path d="M7.63166 176.042V157.682H14.1927C16.7847 157.682 18.7287 158.537 20.0247 160.247C21.3207 161.957 21.9687 164.162 21.9687 166.862C21.9687 169.562 21.3207 171.767 20.0247 173.477C18.7287 175.187 16.7847 176.042 14.1927 176.042H7.63166ZM14.1927 159.626H9.79166V174.098H14.1927C16.0647 174.098 17.4687 173.432 18.4047 172.1C19.3407 170.75 19.8087 169.004 19.8087 166.862C19.8087 164.72 19.3407 162.983 18.4047 161.651C17.4687 160.301 16.0647 159.626 14.1927 159.626ZM29.5926 176.42C27.9726 176.42 26.6316 175.853 25.5696 174.719C24.5256 173.585 24.0036 171.92 24.0036 169.724C24.0036 167.528 24.6246 165.719 25.8666 164.297C27.1086 162.875 28.7196 162.164 30.6996 162.164C31.9596 162.164 32.9766 162.551 33.7506 163.325C34.5246 164.081 34.9116 165.035 34.9116 166.187C34.9116 167.321 34.3176 168.365 33.1296 169.319C31.9596 170.273 30.2496 170.75 27.9996 170.75C27.4056 170.75 26.7756 170.723 26.1096 170.669C26.2356 171.947 26.6226 172.919 27.2706 173.585C27.9366 174.251 28.7376 174.584 29.6736 174.584C31.2396 174.584 32.5446 174.098 33.5886 173.126L34.5606 174.449C33.1926 175.763 31.5366 176.42 29.5926 176.42ZM30.6186 164C29.3766 164 28.3416 164.441 27.5136 165.323C26.7036 166.205 26.2266 167.375 26.0826 168.833C26.6766 168.923 27.3336 168.968 28.0536 168.968C29.6016 168.968 30.7896 168.68 31.6176 168.104C32.4456 167.528 32.8596 166.862 32.8596 166.106C32.8596 165.548 32.6526 165.062 32.2386 164.648C31.8426 164.216 31.3026 164 30.6186 164ZM37.8917 157.142H39.9437V173.072C39.9437 174.062 40.3487 174.557 41.1587 174.557C41.6807 174.557 42.1937 174.377 42.6977 174.017L43.5077 175.475C42.5177 176.105 41.5817 176.42 40.6997 176.42C39.8177 176.42 39.1247 176.177 38.6207 175.691C38.1347 175.205 37.8917 174.332 37.8917 173.072V157.142ZM49.4665 176.42C47.9185 176.42 46.6495 175.835 45.6595 174.665C44.6695 173.495 44.1745 171.812 44.1745 169.616C44.1745 167.402 44.7955 165.611 46.0375 164.243C47.2975 162.857 48.8545 162.164 50.7085 162.164C52.5805 162.164 54.2635 162.686 55.7575 163.73V173.342L56.0275 176.042L54.2455 176.177L53.7865 173.747C52.7785 175.529 51.3385 176.42 49.4665 176.42ZM46.2265 169.562C46.2265 171.182 46.5685 172.424 47.2525 173.288C47.9365 174.152 48.8095 174.584 49.8715 174.584C50.9515 174.584 51.8605 174.053 52.5985 172.991C53.3365 171.911 53.7055 170.39 53.7055 168.428V164.675C52.8055 164.225 51.8425 164 50.8165 164C49.4845 164 48.3865 164.522 47.5225 165.566C46.6585 166.592 46.2265 167.924 46.2265 169.562ZM60.2247 157.142H62.2767V173.072C62.2767 174.062 62.6817 174.557 63.4917 174.557C64.0137 174.557 64.5267 174.377 65.0307 174.017L65.8407 175.475C64.8507 176.105 63.9147 176.42 63.0327 176.42C62.1507 176.42 61.4577 176.177 60.9537 175.691C60.4677 175.205 60.2247 174.332 60.2247 173.072V157.142ZM67.7765 159.599C67.5605 159.347 67.4525 159.032 67.4525 158.654C67.4525 158.276 67.5605 157.97 67.7765 157.736C67.9925 157.484 68.3075 157.358 68.7215 157.358C69.1355 157.358 69.4595 157.484 69.6935 157.736C69.9275 157.988 70.0445 158.294 70.0445 158.654C70.0445 159.014 69.9275 159.32 69.6935 159.572C69.4595 159.824 69.1355 159.95 68.7215 159.95C68.3075 159.95 67.9925 159.833 67.7765 159.599ZM67.7225 176.042V162.542H69.7745V176.042H67.7225ZM81.3807 176.042V157.682H87.9417C90.5337 157.682 92.4777 158.537 93.7737 160.247C95.0697 161.957 95.7177 164.162 95.7177 166.862C95.7177 169.562 95.0697 171.767 93.7737 173.477C92.4777 175.187 90.5337 176.042 87.9417 176.042H81.3807ZM87.9417 159.626H83.5407V174.098H87.9417C89.8137 174.098 91.2177 173.432 92.1537 172.1C93.0897 170.75 93.5577 169.004 93.5577 166.862C93.5577 164.72 93.0897 162.983 92.1537 161.651C91.2177 160.301 89.8137 159.626 87.9417 159.626ZM99.3726 174.449C98.3826 173.117 97.8876 171.398 97.8876 169.292C97.8876 167.186 98.3826 165.476 99.3726 164.162C100.363 162.83 101.839 162.164 103.801 162.164C105.781 162.164 107.275 162.83 108.283 164.162C109.291 165.476 109.795 167.186 109.795 169.292C109.795 171.398 109.291 173.117 108.283 174.449C107.275 175.763 105.781 176.42 103.801 176.42C101.839 176.42 100.363 175.763 99.3726 174.449ZM100.912 165.485C100.264 166.457 99.9396 167.726 99.9396 169.292C99.9396 170.858 100.264 172.136 100.912 173.126C101.56 174.098 102.532 174.584 103.828 174.584C105.124 174.584 106.096 174.098 106.744 173.126C107.41 172.136 107.743 170.858 107.743 169.292C107.743 167.726 107.41 166.457 106.744 165.485C106.096 164.495 105.124 164 103.828 164C102.532 164 101.56 164.495 100.912 165.485ZM123.943 175.124C123.943 177.284 123.313 179.048 122.053 180.416C120.811 181.802 119.254 182.495 117.382 182.495C115.528 182.495 113.854 181.973 112.36 180.929L113.386 179.336C113.818 179.696 114.394 179.993 115.114 180.227C115.834 180.461 116.563 180.578 117.301 180.578C118.633 180.578 119.731 180.065 120.595 179.039C121.459 178.013 121.891 176.699 121.891 175.097V173.828C120.883 175.556 119.47 176.42 117.652 176.42C116.104 176.42 114.835 175.835 113.845 174.665C112.855 173.495 112.36 171.812 112.36 169.616C112.36 167.402 112.981 165.611 114.223 164.243C115.483 162.857 117.04 162.164 118.894 162.164C120.766 162.164 122.449 162.686 123.943 163.73V175.124ZM114.412 169.562C114.412 171.182 114.754 172.424 115.438 173.288C116.122 174.152 116.995 174.584 118.057 174.584C119.137 174.584 120.046 174.044 120.784 172.964C121.522 171.884 121.891 170.345 121.891 168.347V164.675C120.991 164.225 120.028 164 119.002 164C117.67 164 116.572 164.522 115.708 165.566C114.844 166.592 114.412 167.924 114.412 169.562ZM130.304 157.142V164.756C131.294 163.028 132.752 162.164 134.678 162.164C136.19 162.164 137.423 162.749 138.377 163.919C139.349 165.089 139.835 166.781 139.835 168.995C139.835 171.191 139.205 172.982 137.945 174.368C136.703 175.736 135.182 176.42 133.382 176.42C131.582 176.42 130.277 175.916 129.467 174.908C128.657 173.882 128.252 172.496 128.252 170.75V157.142H130.304ZM137.783 169.022C137.783 167.384 137.477 166.142 136.865 165.296C136.253 164.432 135.389 164 134.273 164C133.175 164 132.248 164.495 131.492 165.485C130.736 166.475 130.34 167.996 130.304 170.048V170.75C130.304 171.884 130.538 172.811 131.006 173.531C131.492 174.233 132.221 174.584 133.193 174.584C134.525 174.584 135.623 174.071 136.487 173.045C137.351 172.001 137.783 170.66 137.783 169.022ZM147.981 176.42C146.361 176.42 145.02 175.853 143.958 174.719C142.914 173.585 142.392 171.92 142.392 169.724C142.392 167.528 143.013 165.719 144.255 164.297C145.497 162.875 147.108 162.164 149.088 162.164C150.348 162.164 151.365 162.551 152.139 163.325C152.913 164.081 153.3 165.035 153.3 166.187C153.3 167.321 152.706 168.365 151.518 169.319C150.348 170.273 148.638 170.75 146.388 170.75C145.794 170.75 145.164 170.723 144.498 170.669C144.624 171.947 145.011 172.919 145.659 173.585C146.325 174.251 147.126 174.584 148.062 174.584C149.628 174.584 150.933 174.098 151.977 173.126L152.949 174.449C151.581 175.763 149.925 176.42 147.981 176.42ZM149.007 164C147.765 164 146.73 164.441 145.902 165.323C145.092 166.205 144.615 167.375 144.471 168.833C145.065 168.923 145.722 168.968 146.442 168.968C147.99 168.968 149.178 168.68 150.006 168.104C150.834 167.528 151.248 166.862 151.248 166.106C151.248 165.548 151.041 165.062 150.627 164.648C150.231 164.216 149.691 164 149.007 164ZM156.604 162.542L160.654 173.693L164.677 162.542H166.864L161.842 176.042H159.412L154.39 162.542H156.604ZM169.475 159.599C169.259 159.347 169.151 159.032 169.151 158.654C169.151 158.276 169.259 157.97 169.475 157.736C169.691 157.484 170.006 157.358 170.42 157.358C170.834 157.358 171.158 157.484 171.392 157.736C171.626 157.988 171.743 158.294 171.743 158.654C171.743 159.014 171.626 159.32 171.392 159.572C171.158 159.824 170.834 159.95 170.42 159.95C170.006 159.95 169.691 159.833 169.475 159.599ZM169.421 176.042V162.542H171.473V176.042H169.421Z" fill="white"/>
<defs>
<linearGradient id="paint0_linear_21_1761" x1="154.403" y1="45.4913" x2="70.2902" y2="174.078" gradientUnits="userSpaceOnUse">
<stop offset="0.307863" stop-color="white" stop-opacity="0.22"/>
<stop offset="0.402962" stop-color="white"/>
<stop offset="0.550005" stop-color="white" stop-opacity="0"/>
<stop offset="0.9312" stop-color="white" stop-opacity="0.01"/>
</linearGradient>
<linearGradient id="paint1_linear_21_1761" x1="6.63995" y1="154.77" x2="66.5826" y2="21.3494" gradientUnits="userSpaceOnUse">
<stop offset="0.456646" stop-color="white" stop-opacity="0.22"/>
<stop offset="0.633956" stop-color="white" stop-opacity="0"/>
<stop offset="0.929553" stop-color="white" stop-opacity="0.01"/>
</linearGradient>
<linearGradient id="paint2_linear_21_1761" x1="-41.078" y1="-14.7934" x2="-114.679" y2="106.266" gradientUnits="userSpaceOnUse">
<stop stop-opacity="0.26"/>
<stop offset="0.398327" stop-color="white"/>
<stop offset="1" stop-opacity="0"/>
</linearGradient>
</defs>
</svg>
