<svg width="180" height="183" viewBox="0 0 180 183" fill="none" xmlns="http://www.w3.org/2000/svg">
<path d="M126.964 151.184H93.9644V58.0934H127.237C136.601 58.0934 144.661 59.9571 151.419 63.6843C158.177 67.3813 163.374 72.6995 167.01 79.6389C170.677 86.5783 172.51 94.8813 172.51 104.548C172.51 114.245 170.677 122.578 167.01 129.548C163.374 136.518 158.146 141.866 151.328 145.593C144.54 149.321 136.419 151.184 126.964 151.184ZM113.646 134.321H126.146C131.964 134.321 136.858 133.29 140.828 131.23C144.828 129.139 147.828 125.912 149.828 121.548C151.858 117.154 152.874 111.487 152.874 104.548C152.874 97.6692 151.858 92.048 149.828 87.6843C147.828 83.3207 144.843 80.1086 140.874 78.048C136.904 75.9874 132.01 74.9571 126.192 74.9571H113.646V134.321Z" fill="url(#paint0_linear_19_1728)"/>
<path d="M41.5611 124.142H8.56112V31.0509H41.8339C51.1975 31.0509 59.2581 32.9146 66.0157 36.6418C72.7732 40.3388 77.9702 45.657 81.6066 52.5964C85.2732 59.5358 87.1066 67.8388 87.1066 77.5055C87.1066 87.2024 85.2732 95.5358 81.6066 102.505C77.9702 109.475 72.7429 114.824 65.9248 118.551C59.1369 122.278 51.0157 124.142 41.5611 124.142ZM28.2429 107.278H40.7429C46.5611 107.278 51.4551 106.248 55.4248 104.187C59.4248 102.096 62.4248 98.8691 64.4248 94.5055C66.4551 90.1115 67.4702 84.4449 67.4702 77.5055C67.4702 70.6267 66.4551 65.0055 64.4248 60.6418C62.4248 56.2782 59.4399 53.0661 55.4702 51.0055C51.5005 48.9449 46.6066 47.9146 40.7884 47.9146H28.2429V107.278Z" fill="url(#paint1_linear_19_1728)"/>
<path d="M41.5611 124.142H8.56112V31.0509H41.8339C51.1975 31.0509 59.2581 32.9146 66.0157 36.6418C72.7732 40.3388 77.9702 45.657 81.6066 52.5964C85.2732 59.5358 87.1066 67.8388 87.1066 77.5055C87.1066 87.2024 85.2732 95.5358 81.6066 102.505C77.9702 109.475 72.7429 114.824 65.9248 118.551C59.1369 122.278 51.0157 124.142 41.5611 124.142ZM28.2429 107.278H40.7429C46.5611 107.278 51.4551 106.248 55.4248 104.187C59.4248 102.096 62.4248 98.8691 64.4248 94.5055C66.4551 90.1115 67.4702 84.4449 67.4702 77.5055C67.4702 70.6267 66.4551 65.0055 64.4248 60.6418C62.4248 56.2782 59.4399 53.0661 55.4702 51.0055C51.5005 48.9449 46.6066 47.9146 40.7884 47.9146H28.2429V107.278Z" fill="url(#paint2_linear_19_1728)" fill-opacity="0.2"/>
<path d="M126.964 151.184H93.9644V58.0934H127.237C136.601 58.0934 144.661 59.9571 151.419 63.6843C158.177 67.3813 163.374 72.6995 167.01 79.6389C170.677 86.5783 172.51 94.8813 172.51 104.548C172.51 114.245 170.677 122.578 167.01 129.548C163.374 136.518 158.146 141.866 151.328 145.593C144.54 149.321 136.419 151.184 126.964 151.184ZM113.646 134.321H126.146C131.964 134.321 136.858 133.29 140.828 131.23C144.828 129.139 147.828 125.912 149.828 121.548C151.858 117.154 152.874 111.487 152.874 104.548C152.874 97.6692 151.858 92.048 149.828 87.6843C147.828 83.3207 144.843 80.1086 140.874 78.048C136.904 75.9874 132.01 74.9571 126.192 74.9571H113.646V134.321Z" fill="url(#paint3_linear_19_1728)"/>
<path d="M41.5611 124.142H8.56112V31.0509H41.8339C51.1975 31.0509 59.2581 32.9146 66.0157 36.6418C72.7732 40.3388 77.9702 45.657 81.6066 52.5964C85.2732 59.5358 87.1066 67.8388 87.1066 77.5055C87.1066 87.2024 85.2732 95.5358 81.6066 102.505C77.9702 109.475 72.7429 114.824 65.9248 118.551C59.1369 122.278 51.0157 124.142 41.5611 124.142ZM28.2429 107.278H40.7429C46.5611 107.278 51.4551 106.248 55.4248 104.187C59.4248 102.096 62.4248 98.8691 64.4248 94.5055C66.4551 90.1115 67.4702 84.4449 67.4702 77.5055C67.4702 70.6267 66.4551 65.0055 64.4248 60.6418C62.4248 56.2782 59.4399 53.0661 55.4702 51.0055C51.5005 48.9449 46.6066 47.9146 40.7884 47.9146H28.2429V107.278Z" fill="url(#paint4_linear_19_1728)"/>
<path d="M41.5611 124.142H8.56112V31.0509H41.8339C51.1975 31.0509 59.2581 32.9146 66.0157 36.6418C72.7732 40.3388 77.9702 45.657 81.6066 52.5964C85.2732 59.5358 87.1066 67.8388 87.1066 77.5055C87.1066 87.2024 85.2732 95.5358 81.6066 102.505C77.9702 109.475 72.7429 114.824 65.9248 118.551C59.1369 122.278 51.0157 124.142 41.5611 124.142ZM28.2429 107.278H40.7429C46.5611 107.278 51.4551 106.248 55.4248 104.187C59.4248 102.096 62.4248 98.8691 64.4248 94.5055C66.4551 90.1115 67.4702 84.4449 67.4702 77.5055C67.4702 70.6267 66.4551 65.0055 64.4248 60.6418C62.4248 56.2782 59.4399 53.0661 55.4702 51.0055C51.5005 48.9449 46.6066 47.9146 40.7884 47.9146H28.2429V107.278Z" fill="url(#paint5_linear_19_1728)" fill-opacity="0.2"/>
<defs>
<linearGradient id="paint0_linear_19_1728" x1="154.873" y1="45.6332" x2="70.7604" y2="174.22" gradientUnits="userSpaceOnUse">
<stop offset="0.307863" stop-color="white" stop-opacity="0.22"/>
<stop offset="0.402962" stop-color="white"/>
<stop offset="0.550005" stop-color="white" stop-opacity="0"/>
<stop offset="0.9312" stop-color="white" stop-opacity="0.01"/>
</linearGradient>
<linearGradient id="paint1_linear_19_1728" x1="7.11017" y1="154.912" x2="67.0528" y2="21.4912" gradientUnits="userSpaceOnUse">
<stop offset="0.456646" stop-color="white" stop-opacity="0.22"/>
<stop offset="0.633956" stop-color="white" stop-opacity="0"/>
<stop offset="0.929553" stop-color="white" stop-opacity="0.01"/>
</linearGradient>
<linearGradient id="paint2_linear_19_1728" x1="-40.6078" y1="-14.6515" x2="-114.209" y2="106.407" gradientUnits="userSpaceOnUse">
<stop stop-opacity="0.26"/>
<stop offset="0.398327" stop-color="white"/>
<stop offset="1" stop-opacity="0"/>
</linearGradient>
<linearGradient id="paint3_linear_19_1728" x1="154.873" y1="45.6332" x2="70.7604" y2="174.22" gradientUnits="userSpaceOnUse">
<stop offset="0.307863" stop-color="white" stop-opacity="0.22"/>
<stop offset="0.402962" stop-color="white"/>
<stop offset="0.550005" stop-color="white" stop-opacity="0"/>
<stop offset="0.9312" stop-color="white" stop-opacity="0.01"/>
</linearGradient>
<linearGradient id="paint4_linear_19_1728" x1="7.11017" y1="154.912" x2="67.0528" y2="21.4912" gradientUnits="userSpaceOnUse">
<stop offset="0.456646" stop-color="white" stop-opacity="0.22"/>
<stop offset="0.633956" stop-color="white" stop-opacity="0"/>
<stop offset="0.929553" stop-color="white" stop-opacity="0.01"/>
</linearGradient>
<linearGradient id="paint5_linear_19_1728" x1="-40.6078" y1="-14.6515" x2="-114.209" y2="106.407" gradientUnits="userSpaceOnUse">
<stop stop-opacity="0.26"/>
<stop offset="0.398327" stop-color="white"/>
<stop offset="1" stop-opacity="0"/>
</linearGradient>
</defs>
</svg>
