<svg width="369" height="183" viewBox="0 0 369 183" fill="none" xmlns="http://www.w3.org/2000/svg">
<path d="M127.072 151.782H94.0719V58.6908H127.345C136.708 58.6908 144.769 60.5545 151.526 64.2817C158.284 67.9787 163.481 73.2969 167.117 80.2363C170.784 87.1757 172.617 95.4787 172.617 105.145C172.617 114.842 170.784 123.176 167.117 130.145C163.481 137.115 158.254 142.464 151.436 146.191C144.648 149.918 136.526 151.782 127.072 151.782ZM113.754 134.918H126.254C132.072 134.918 136.966 133.888 140.936 131.827C144.936 129.736 147.936 126.509 149.936 122.145C151.966 117.751 152.981 112.085 152.981 105.145C152.981 98.2666 151.966 92.6454 149.936 88.2817C147.936 83.9181 144.951 80.706 140.981 78.6454C137.011 76.5848 132.117 75.5545 126.299 75.5545H113.754V134.918Z" fill="url(#paint0_linear_20_1757)"/>
<path d="M41.6685 124.739H8.66855V31.6483H41.9413C51.3049 31.6483 59.3655 33.512 66.1231 37.2393C72.8807 40.9362 78.0776 46.2544 81.714 53.1938C85.3807 60.1332 87.214 68.4362 87.214 78.1029C87.214 87.7999 85.3807 96.1332 81.714 103.103C78.0776 110.073 72.8504 115.421 66.0322 119.148C59.2443 122.876 51.1231 124.739 41.6685 124.739ZM28.3504 107.876H40.8504C46.6685 107.876 51.5625 106.845 55.5322 104.785C59.5322 102.694 62.5322 99.4665 64.5322 95.1029C66.5625 90.709 67.5776 85.0423 67.5776 78.1029C67.5776 71.2241 66.5625 65.6029 64.5322 61.2393C62.5322 56.8756 59.5473 53.6635 55.5776 51.6029C51.6079 49.5423 46.714 48.512 40.8958 48.512H28.3504V107.876Z" fill="url(#paint1_linear_20_1757)"/>
<path d="M41.6685 124.739H8.66855V31.6483H41.9413C51.3049 31.6483 59.3655 33.512 66.1231 37.2393C72.8807 40.9362 78.0776 46.2544 81.714 53.1938C85.3807 60.1332 87.214 68.4362 87.214 78.1029C87.214 87.7999 85.3807 96.1332 81.714 103.103C78.0776 110.073 72.8504 115.421 66.0322 119.148C59.2443 122.876 51.1231 124.739 41.6685 124.739ZM28.3504 107.876H40.8504C46.6685 107.876 51.5625 106.845 55.5322 104.785C59.5322 102.694 62.5322 99.4665 64.5322 95.1029C66.5625 90.709 67.5776 85.0423 67.5776 78.1029C67.5776 71.2241 66.5625 65.6029 64.5322 61.2393C62.5322 56.8756 59.5473 53.6635 55.5776 51.6029C51.6079 49.5423 46.714 48.512 40.8958 48.512H28.3504V107.876Z" fill="url(#paint2_linear_20_1757)" fill-opacity="0.2"/>
<path d="M204.301 79.7605V47.1205H215.965C220.573 47.1205 224.029 48.6405 226.333 51.6805C228.637 54.7205 229.789 58.6405 229.789 63.4405C229.789 68.2405 228.637 72.1605 226.333 75.2005C224.029 78.2405 220.573 79.7605 215.965 79.7605H204.301ZM215.965 50.5765H208.141V76.3045H215.965C219.293 76.3045 221.789 75.1205 223.453 72.7525C225.117 70.3525 225.949 67.2485 225.949 63.4405C225.949 59.6325 225.117 56.5445 223.453 54.1765C221.789 51.7765 219.293 50.5765 215.965 50.5765ZM243.343 80.4325C240.463 80.4325 238.079 79.4245 236.191 77.4085C234.335 75.3925 233.407 72.4325 233.407 68.5285C233.407 64.6245 234.511 61.4085 236.719 58.8805C238.927 56.3525 241.791 55.0885 245.311 55.0885C247.551 55.0885 249.359 55.7765 250.735 57.1525C252.111 58.4965 252.799 60.1925 252.799 62.2405C252.799 64.2565 251.743 66.1125 249.631 67.8085C247.551 69.5045 244.511 70.3525 240.511 70.3525C239.455 70.3525 238.335 70.3045 237.151 70.2085C237.375 72.4805 238.063 74.2085 239.215 75.3925C240.399 76.5765 241.823 77.1685 243.487 77.1685C246.271 77.1685 248.591 76.3045 250.447 74.5765L252.175 76.9285C249.743 79.2645 246.799 80.4325 243.343 80.4325ZM245.167 58.3525C242.959 58.3525 241.119 59.1365 239.647 60.7045C238.207 62.2725 237.359 64.3525 237.103 66.9445C238.159 67.1045 239.327 67.1845 240.607 67.1845C243.359 67.1845 245.471 66.6725 246.943 65.6485C248.415 64.6245 249.151 63.4405 249.151 62.0965C249.151 61.1045 248.783 60.2405 248.047 59.5045C247.343 58.7365 246.383 58.3525 245.167 58.3525ZM258.097 46.1605H261.745V74.4805C261.745 76.2405 262.465 77.1205 263.905 77.1205C264.833 77.1205 265.745 76.8005 266.641 76.1605L268.081 78.7525C266.321 79.8725 264.657 80.4325 263.089 80.4325C261.521 80.4325 260.289 80.0005 259.393 79.1365C258.529 78.2725 258.097 76.7205 258.097 74.4805V46.1605ZM278.674 80.4325C275.922 80.4325 273.666 79.3925 271.906 77.3125C270.146 75.2325 269.266 72.2405 269.266 68.3365C269.266 64.4005 270.37 61.2165 272.578 58.7845C274.818 56.3205 277.586 55.0885 280.882 55.0885C284.21 55.0885 287.202 56.0165 289.858 57.8725V74.9605L290.338 79.7605L287.17 80.0005L286.354 75.6805C284.562 78.8485 282.002 80.4325 278.674 80.4325ZM272.914 68.2405C272.914 71.1205 273.522 73.3285 274.738 74.8645C275.954 76.4005 277.506 77.1685 279.394 77.1685C281.314 77.1685 282.93 76.2245 284.242 74.3365C285.554 72.4165 286.21 69.7125 286.21 66.2245V59.5525C284.61 58.7525 282.898 58.3525 281.074 58.3525C278.706 58.3525 276.754 59.2805 275.218 61.1365C273.682 62.9605 272.914 65.3285 272.914 68.2405ZM297.8 46.1605H301.448V74.4805C301.448 76.2405 302.168 77.1205 303.608 77.1205C304.536 77.1205 305.448 76.8005 306.344 76.1605L307.784 78.7525C306.024 79.8725 304.36 80.4325 302.792 80.4325C301.224 80.4325 299.992 80.0005 299.096 79.1365C298.232 78.2725 297.8 76.7205 297.8 74.4805V46.1605ZM311.225 50.5285C310.841 50.0805 310.649 49.5205 310.649 48.8485C310.649 48.1765 310.841 47.6325 311.225 47.2165C311.609 46.7685 312.169 46.5445 312.905 46.5445C313.641 46.5445 314.217 46.7685 314.633 47.2165C315.049 47.6645 315.257 48.2085 315.257 48.8485C315.257 49.4885 315.049 50.0325 314.633 50.4805C314.217 50.9285 313.641 51.1525 312.905 51.1525C312.169 51.1525 311.609 50.9445 311.225 50.5285ZM311.129 79.7605V55.7605H314.777V79.7605H311.129ZM204.301 135.76V103.12H215.965C220.573 103.12 224.029 104.64 226.333 107.68C228.637 110.72 229.789 114.64 229.789 119.44C229.789 124.24 228.637 128.16 226.333 131.2C224.029 134.24 220.573 135.76 215.965 135.76H204.301ZM215.965 106.576H208.141V132.304H215.965C219.293 132.304 221.789 131.12 223.453 128.752C225.117 126.352 225.949 123.248 225.949 119.44C225.949 115.632 225.117 112.544 223.453 110.176C221.789 107.776 219.293 106.576 215.965 106.576ZM236.287 132.928C234.527 130.56 233.647 127.504 233.647 123.76C233.647 120.016 234.527 116.976 236.287 114.64C238.047 112.272 240.671 111.088 244.159 111.088C247.679 111.088 250.335 112.272 252.127 114.64C253.919 116.976 254.815 120.016 254.815 123.76C254.815 127.504 253.919 130.56 252.127 132.928C250.335 135.264 247.679 136.432 244.159 136.432C240.671 136.432 238.047 135.264 236.287 132.928ZM239.023 116.992C237.871 118.72 237.295 120.976 237.295 123.76C237.295 126.544 237.871 128.816 239.023 130.576C240.175 132.304 241.903 133.168 244.207 133.168C246.511 133.168 248.239 132.304 249.391 130.576C250.575 128.816 251.167 126.544 251.167 123.76C251.167 120.976 250.575 118.72 249.391 116.992C248.239 115.232 246.511 114.352 244.207 114.352C241.903 114.352 240.175 115.232 239.023 116.992ZM279.967 134.128C279.967 137.968 278.847 141.104 276.607 143.536C274.399 146 271.631 147.232 268.303 147.232C265.007 147.232 262.031 146.304 259.375 144.448L261.199 141.616C261.967 142.256 262.991 142.784 264.271 143.2C265.551 143.616 266.847 143.824 268.159 143.824C270.527 143.824 272.479 142.912 274.015 141.088C275.551 139.264 276.319 136.928 276.319 134.08V131.824C274.527 134.896 272.015 136.432 268.783 136.432C266.031 136.432 263.775 135.392 262.015 133.312C260.255 131.232 259.375 128.24 259.375 124.336C259.375 120.4 260.479 117.216 262.687 114.784C264.927 112.32 267.695 111.088 270.991 111.088C274.319 111.088 277.311 112.016 279.967 113.872V134.128ZM263.023 124.24C263.023 127.12 263.631 129.328 264.847 130.864C266.063 132.4 267.615 133.168 269.503 133.168C271.423 133.168 273.039 132.208 274.351 130.288C275.663 128.368 276.319 125.632 276.319 122.08V115.552C274.719 114.752 273.007 114.352 271.183 114.352C268.815 114.352 266.863 115.28 265.327 117.136C263.791 118.96 263.023 121.328 263.023 124.24ZM291.276 102.16V115.696C293.036 112.624 295.628 111.088 299.052 111.088C301.74 111.088 303.932 112.128 305.628 114.208C307.356 116.288 308.22 119.296 308.22 123.232C308.22 127.136 307.1 130.32 304.86 132.784C302.652 135.216 299.948 136.432 296.748 136.432C293.548 136.432 291.228 135.536 289.788 133.744C288.348 131.92 287.628 129.456 287.628 126.352V102.16H291.276ZM304.572 123.28C304.572 120.368 304.028 118.16 302.94 116.656C301.852 115.12 300.316 114.352 298.332 114.352C296.38 114.352 294.732 115.232 293.388 116.992C292.044 118.752 291.34 121.456 291.276 125.104V126.352C291.276 128.368 291.692 130.016 292.524 131.296C293.388 132.544 294.684 133.168 296.412 133.168C298.78 133.168 300.732 132.256 302.268 130.432C303.804 128.576 304.572 126.192 304.572 123.28ZM322.702 136.432C319.822 136.432 317.438 135.424 315.55 133.408C313.694 131.392 312.766 128.432 312.766 124.528C312.766 120.624 313.87 117.408 316.078 114.88C318.286 112.352 321.15 111.088 324.67 111.088C326.91 111.088 328.718 111.776 330.094 113.152C331.47 114.496 332.158 116.192 332.158 118.24C332.158 120.256 331.102 122.112 328.99 123.808C326.91 125.504 323.87 126.352 319.87 126.352C318.814 126.352 317.694 126.304 316.51 126.208C316.734 128.48 317.422 130.208 318.574 131.392C319.758 132.576 321.182 133.168 322.846 133.168C325.63 133.168 327.95 132.304 329.806 130.576L331.534 132.928C329.102 135.264 326.158 136.432 322.702 136.432ZM324.526 114.352C322.318 114.352 320.478 115.136 319.006 116.704C317.566 118.272 316.718 120.352 316.462 122.944C317.518 123.104 318.686 123.184 319.966 123.184C322.718 123.184 324.83 122.672 326.302 121.648C327.774 120.624 328.51 119.44 328.51 118.096C328.51 117.104 328.142 116.24 327.406 115.504C326.702 114.736 325.742 114.352 324.526 114.352ZM338.032 111.76L345.232 131.584L352.384 111.76H356.272L347.344 135.76H343.024L334.096 111.76H338.032ZM360.913 106.528C360.529 106.08 360.337 105.52 360.337 104.848C360.337 104.176 360.529 103.632 360.913 103.216C361.297 102.768 361.857 102.544 362.593 102.544C363.329 102.544 363.905 102.768 364.321 103.216C364.737 103.664 364.945 104.208 364.945 104.848C364.945 105.488 364.737 106.032 364.321 106.48C363.905 106.928 363.329 107.152 362.593 107.152C361.857 107.152 361.297 106.944 360.913 106.528ZM360.817 135.76V111.76H364.465V135.76H360.817Z" fill="black"/>
<defs>
<linearGradient id="paint0_linear_20_1757" x1="131.362" y1="74.6973" x2="63.4796" y2="163.239" gradientUnits="userSpaceOnUse">
<stop stop-opacity="0.22"/>
<stop offset="0.16669" stop-color="#7D7D7D"/>
<stop offset="0.317005" stop-color="#2E2E2E" stop-opacity="0.367124"/>
<stop offset="0.516025" stop-opacity="0"/>
<stop offset="1" stop-opacity="0.01"/>
</linearGradient>
<linearGradient id="paint1_linear_20_1757" x1="7.21759" y1="155.509" x2="67.1603" y2="22.0886" gradientUnits="userSpaceOnUse">
<stop offset="0.2625" stop-color="#646464" stop-opacity="0.22"/>
<stop offset="0.456646" stop-color="white" stop-opacity="0.22"/>
<stop offset="0.633956" stop-color="white" stop-opacity="0"/>
<stop offset="0.929553" stop-color="white" stop-opacity="0.01"/>
</linearGradient>
<linearGradient id="paint2_linear_20_1757" x1="-40.5004" y1="-14.0541" x2="-114.101" y2="107.005" gradientUnits="userSpaceOnUse">
<stop stop-color="white" stop-opacity="0.26"/>
<stop offset="0.398327"/>
<stop offset="1" stop-color="white" stop-opacity="0"/>
</linearGradient>
</defs>
</svg>
