<svg width="366" height="183" viewBox="0 0 366 183" fill="none" xmlns="http://www.w3.org/2000/svg">
<path d="M127.072 151.782H94.0719V58.6908H127.345C136.708 58.6908 144.769 60.5545 151.526 64.2817C158.284 67.9787 163.481 73.2969 167.117 80.2363C170.784 87.1757 172.617 95.4787 172.617 105.145C172.617 114.842 170.784 123.176 167.117 130.145C163.481 137.115 158.254 142.464 151.436 146.191C144.648 149.918 136.526 151.782 127.072 151.782ZM113.754 134.918H126.254C132.072 134.918 136.966 133.888 140.936 131.827C144.936 129.736 147.936 126.509 149.936 122.145C151.966 117.751 152.981 112.085 152.981 105.145C152.981 98.2666 151.966 92.6454 149.936 88.2817C147.936 83.9181 144.951 80.706 140.981 78.6454C137.011 76.5848 132.117 75.5545 126.299 75.5545H113.754V134.918Z" fill="url(#paint0_linear_20_1748)"/>
<path d="M41.6685 124.739H8.66855V31.6483H41.9413C51.3049 31.6483 59.3655 33.512 66.1231 37.2393C72.8807 40.9362 78.0776 46.2544 81.714 53.1938C85.3807 60.1332 87.214 68.4362 87.214 78.1029C87.214 87.7999 85.3807 96.1332 81.714 103.103C78.0776 110.073 72.8504 115.421 66.0322 119.148C59.2443 122.876 51.1231 124.739 41.6685 124.739ZM28.3504 107.876H40.8504C46.6685 107.876 51.5625 106.845 55.5322 104.785C59.5322 102.694 62.5322 99.4665 64.5322 95.1029C66.5625 90.709 67.5776 85.0423 67.5776 78.1029C67.5776 71.2241 66.5625 65.6029 64.5322 61.2393C62.5322 56.8756 59.5473 53.6635 55.5776 51.6029C51.6079 49.5423 46.714 48.512 40.8958 48.512H28.3504V107.876Z" fill="url(#paint1_linear_20_1748)"/>
<path d="M41.6685 124.739H8.66855V31.6483H41.9413C51.3049 31.6483 59.3655 33.512 66.1231 37.2393C72.8807 40.9362 78.0776 46.2544 81.714 53.1938C85.3807 60.1332 87.214 68.4362 87.214 78.1029C87.214 87.7999 85.3807 96.1332 81.714 103.103C78.0776 110.073 72.8504 115.421 66.0322 119.148C59.2443 122.876 51.1231 124.739 41.6685 124.739ZM28.3504 107.876H40.8504C46.6685 107.876 51.5625 106.845 55.5322 104.785C59.5322 102.694 62.5322 99.4665 64.5322 95.1029C66.5625 90.709 67.5776 85.0423 67.5776 78.1029C67.5776 71.2241 66.5625 65.6029 64.5322 61.2393C62.5322 56.8756 59.5473 53.6635 55.5776 51.6029C51.6079 49.5423 46.714 48.512 40.8958 48.512H28.3504V107.876Z" fill="url(#paint2_linear_20_1748)" fill-opacity="0.2"/>
<path d="M201.301 79.7605V47.1205H212.965C217.573 47.1205 221.029 48.6405 223.333 51.6805C225.637 54.7205 226.789 58.6405 226.789 63.4405C226.789 68.2405 225.637 72.1605 223.333 75.2005C221.029 78.2405 217.573 79.7605 212.965 79.7605H201.301ZM212.965 50.5765H205.141V76.3045H212.965C216.293 76.3045 218.789 75.1205 220.453 72.7525C222.117 70.3525 222.949 67.2485 222.949 63.4405C222.949 59.6325 222.117 56.5445 220.453 54.1765C218.789 51.7765 216.293 50.5765 212.965 50.5765ZM240.343 80.4325C237.463 80.4325 235.079 79.4245 233.191 77.4085C231.335 75.3925 230.407 72.4325 230.407 68.5285C230.407 64.6245 231.511 61.4085 233.719 58.8805C235.927 56.3525 238.791 55.0885 242.311 55.0885C244.551 55.0885 246.359 55.7765 247.735 57.1525C249.111 58.4965 249.799 60.1925 249.799 62.2405C249.799 64.2565 248.743 66.1125 246.631 67.8085C244.551 69.5045 241.511 70.3525 237.511 70.3525C236.455 70.3525 235.335 70.3045 234.151 70.2085C234.375 72.4805 235.063 74.2085 236.215 75.3925C237.399 76.5765 238.823 77.1685 240.487 77.1685C243.271 77.1685 245.591 76.3045 247.447 74.5765L249.175 76.9285C246.743 79.2645 243.799 80.4325 240.343 80.4325ZM242.167 58.3525C239.959 58.3525 238.119 59.1365 236.647 60.7045C235.207 62.2725 234.359 64.3525 234.103 66.9445C235.159 67.1045 236.327 67.1845 237.607 67.1845C240.359 67.1845 242.471 66.6725 243.943 65.6485C245.415 64.6245 246.151 63.4405 246.151 62.0965C246.151 61.1045 245.783 60.2405 245.047 59.5045C244.343 58.7365 243.383 58.3525 242.167 58.3525ZM255.097 46.1605H258.745V74.4805C258.745 76.2405 259.465 77.1205 260.905 77.1205C261.833 77.1205 262.745 76.8005 263.641 76.1605L265.081 78.7525C263.321 79.8725 261.657 80.4325 260.089 80.4325C258.521 80.4325 257.289 80.0005 256.393 79.1365C255.529 78.2725 255.097 76.7205 255.097 74.4805V46.1605ZM275.674 80.4325C272.922 80.4325 270.666 79.3925 268.906 77.3125C267.146 75.2325 266.266 72.2405 266.266 68.3365C266.266 64.4005 267.37 61.2165 269.578 58.7845C271.818 56.3205 274.586 55.0885 277.882 55.0885C281.21 55.0885 284.202 56.0165 286.858 57.8725V74.9605L287.338 79.7605L284.17 80.0005L283.354 75.6805C281.562 78.8485 279.002 80.4325 275.674 80.4325ZM269.914 68.2405C269.914 71.1205 270.522 73.3285 271.738 74.8645C272.954 76.4005 274.506 77.1685 276.394 77.1685C278.314 77.1685 279.93 76.2245 281.242 74.3365C282.554 72.4165 283.21 69.7125 283.21 66.2245V59.5525C281.61 58.7525 279.898 58.3525 278.074 58.3525C275.706 58.3525 273.754 59.2805 272.218 61.1365C270.682 62.9605 269.914 65.3285 269.914 68.2405ZM294.8 46.1605H298.448V74.4805C298.448 76.2405 299.168 77.1205 300.608 77.1205C301.536 77.1205 302.448 76.8005 303.344 76.1605L304.784 78.7525C303.024 79.8725 301.36 80.4325 299.792 80.4325C298.224 80.4325 296.992 80.0005 296.096 79.1365C295.232 78.2725 294.8 76.7205 294.8 74.4805V46.1605ZM308.225 50.5285C307.841 50.0805 307.649 49.5205 307.649 48.8485C307.649 48.1765 307.841 47.6325 308.225 47.2165C308.609 46.7685 309.169 46.5445 309.905 46.5445C310.641 46.5445 311.217 46.7685 311.633 47.2165C312.049 47.6645 312.257 48.2085 312.257 48.8485C312.257 49.4885 312.049 50.0325 311.633 50.4805C311.217 50.9285 310.641 51.1525 309.905 51.1525C309.169 51.1525 308.609 50.9445 308.225 50.5285ZM308.129 79.7605V55.7605H311.777V79.7605H308.129ZM201.301 135.76V103.12H212.965C217.573 103.12 221.029 104.64 223.333 107.68C225.637 110.72 226.789 114.64 226.789 119.44C226.789 124.24 225.637 128.16 223.333 131.2C221.029 134.24 217.573 135.76 212.965 135.76H201.301ZM212.965 106.576H205.141V132.304H212.965C216.293 132.304 218.789 131.12 220.453 128.752C222.117 126.352 222.949 123.248 222.949 119.44C222.949 115.632 222.117 112.544 220.453 110.176C218.789 107.776 216.293 106.576 212.965 106.576ZM233.287 132.928C231.527 130.56 230.647 127.504 230.647 123.76C230.647 120.016 231.527 116.976 233.287 114.64C235.047 112.272 237.671 111.088 241.159 111.088C244.679 111.088 247.335 112.272 249.127 114.64C250.919 116.976 251.815 120.016 251.815 123.76C251.815 127.504 250.919 130.56 249.127 132.928C247.335 135.264 244.679 136.432 241.159 136.432C237.671 136.432 235.047 135.264 233.287 132.928ZM236.023 116.992C234.871 118.72 234.295 120.976 234.295 123.76C234.295 126.544 234.871 128.816 236.023 130.576C237.175 132.304 238.903 133.168 241.207 133.168C243.511 133.168 245.239 132.304 246.391 130.576C247.575 128.816 248.167 126.544 248.167 123.76C248.167 120.976 247.575 118.72 246.391 116.992C245.239 115.232 243.511 114.352 241.207 114.352C238.903 114.352 237.175 115.232 236.023 116.992ZM276.967 134.128C276.967 137.968 275.847 141.104 273.607 143.536C271.399 146 268.631 147.232 265.303 147.232C262.007 147.232 259.031 146.304 256.375 144.448L258.199 141.616C258.967 142.256 259.991 142.784 261.271 143.2C262.551 143.616 263.847 143.824 265.159 143.824C267.527 143.824 269.479 142.912 271.015 141.088C272.551 139.264 273.319 136.928 273.319 134.08V131.824C271.527 134.896 269.015 136.432 265.783 136.432C263.031 136.432 260.775 135.392 259.015 133.312C257.255 131.232 256.375 128.24 256.375 124.336C256.375 120.4 257.479 117.216 259.687 114.784C261.927 112.32 264.695 111.088 267.991 111.088C271.319 111.088 274.311 112.016 276.967 113.872V134.128ZM260.023 124.24C260.023 127.12 260.631 129.328 261.847 130.864C263.063 132.4 264.615 133.168 266.503 133.168C268.423 133.168 270.039 132.208 271.351 130.288C272.663 128.368 273.319 125.632 273.319 122.08V115.552C271.719 114.752 270.007 114.352 268.183 114.352C265.815 114.352 263.863 115.28 262.327 117.136C260.791 118.96 260.023 121.328 260.023 124.24ZM288.276 102.16V115.696C290.036 112.624 292.628 111.088 296.052 111.088C298.74 111.088 300.932 112.128 302.628 114.208C304.356 116.288 305.22 119.296 305.22 123.232C305.22 127.136 304.1 130.32 301.86 132.784C299.652 135.216 296.948 136.432 293.748 136.432C290.548 136.432 288.228 135.536 286.788 133.744C285.348 131.92 284.628 129.456 284.628 126.352V102.16H288.276ZM301.572 123.28C301.572 120.368 301.028 118.16 299.94 116.656C298.852 115.12 297.316 114.352 295.332 114.352C293.38 114.352 291.732 115.232 290.388 116.992C289.044 118.752 288.34 121.456 288.276 125.104V126.352C288.276 128.368 288.692 130.016 289.524 131.296C290.388 132.544 291.684 133.168 293.412 133.168C295.78 133.168 297.732 132.256 299.268 130.432C300.804 128.576 301.572 126.192 301.572 123.28ZM319.702 136.432C316.822 136.432 314.438 135.424 312.55 133.408C310.694 131.392 309.766 128.432 309.766 124.528C309.766 120.624 310.87 117.408 313.078 114.88C315.286 112.352 318.15 111.088 321.67 111.088C323.91 111.088 325.718 111.776 327.094 113.152C328.47 114.496 329.158 116.192 329.158 118.24C329.158 120.256 328.102 122.112 325.99 123.808C323.91 125.504 320.87 126.352 316.87 126.352C315.814 126.352 314.694 126.304 313.51 126.208C313.734 128.48 314.422 130.208 315.574 131.392C316.758 132.576 318.182 133.168 319.846 133.168C322.63 133.168 324.95 132.304 326.806 130.576L328.534 132.928C326.102 135.264 323.158 136.432 319.702 136.432ZM321.526 114.352C319.318 114.352 317.478 115.136 316.006 116.704C314.566 118.272 313.718 120.352 313.462 122.944C314.518 123.104 315.686 123.184 316.966 123.184C319.718 123.184 321.83 122.672 323.302 121.648C324.774 120.624 325.51 119.44 325.51 118.096C325.51 117.104 325.142 116.24 324.406 115.504C323.702 114.736 322.742 114.352 321.526 114.352ZM335.032 111.76L342.232 131.584L349.384 111.76H353.272L344.344 135.76H340.024L331.096 111.76H335.032ZM357.913 106.528C357.529 106.08 357.337 105.52 357.337 104.848C357.337 104.176 357.529 103.632 357.913 103.216C358.297 102.768 358.857 102.544 359.593 102.544C360.329 102.544 360.905 102.768 361.321 103.216C361.737 103.664 361.945 104.208 361.945 104.848C361.945 105.488 361.737 106.032 361.321 106.48C360.905 106.928 360.329 107.152 359.593 107.152C358.857 107.152 358.297 106.944 357.913 106.528ZM357.817 135.76V111.76H361.465V135.76H357.817Z" fill="white"/>
<defs>
<linearGradient id="paint0_linear_20_1748" x1="154.981" y1="46.2306" x2="70.8678" y2="174.817" gradientUnits="userSpaceOnUse">
<stop offset="0.307863" stop-color="white" stop-opacity="0.22"/>
<stop offset="0.402962" stop-color="white"/>
<stop offset="0.550005" stop-color="white" stop-opacity="0"/>
<stop offset="0.9312" stop-color="white" stop-opacity="0.01"/>
</linearGradient>
<linearGradient id="paint1_linear_20_1748" x1="7.21759" y1="155.509" x2="67.1603" y2="22.0886" gradientUnits="userSpaceOnUse">
<stop offset="0.456646" stop-color="white" stop-opacity="0.22"/>
<stop offset="0.633956" stop-color="white" stop-opacity="0"/>
<stop offset="0.929553" stop-color="white" stop-opacity="0.01"/>
</linearGradient>
<linearGradient id="paint2_linear_20_1748" x1="-40.5004" y1="-14.0541" x2="-114.101" y2="107.005" gradientUnits="userSpaceOnUse">
<stop stop-opacity="0.26"/>
<stop offset="0.398327" stop-color="white"/>
<stop offset="1" stop-opacity="0"/>
</linearGradient>
</defs>
</svg>
